<svg width="18" height="17" viewBox="0 0 18 17" fill="none" xmlns="http://www.w3.org/2000/svg">
<path d="M8.99988 3.09155L8.19326 2.26243C6.29988 0.31618 2.82813 0.987805 1.57488 3.43468C0.986507 4.58555 0.853757 6.24718 1.92813 8.3678C2.96313 10.4097 5.11638 12.8554 8.99988 15.5194C12.8834 12.8554 15.0355 10.4097 16.0716 8.3678C17.146 6.24606 17.0144 4.58555 16.4249 3.43468C15.1716 0.987805 11.6999 0.315055 9.80651 2.2613L8.99988 3.09155ZM8.99988 16.8751C-8.24974 5.47655 3.68876 -3.41995 8.80188 1.28593C8.86938 1.34818 8.93538 1.4123 8.99988 1.4783C9.06325 1.41189 9.12931 1.34809 9.19788 1.28705C14.3099 -3.4222 26.2495 5.47543 8.99988 16.8751Z" fill="#303030"/>
</svg>
