<svg width="13" height="14" viewBox="0 0 13 14" fill="none" xmlns="http://www.w3.org/2000/svg">
<path d="M6.43786 3.58635C6.82437 3.58635 7.16559 3.66184 7.46151 3.81282C7.76347 3.9638 7.99598 4.18122 8.15904 4.46506C8.32814 4.74286 8.41269 5.06596 8.41269 5.43435C8.41269 6.08659 8.21037 6.56671 7.80574 6.87471C7.40716 7.17667 6.86061 7.32765 6.1661 7.32765L6.13892 8.32412H5.59539L5.55916 6.87471H5.79469C6.41672 6.87471 6.9059 6.77808 7.26222 6.58482C7.62457 6.38553 7.80574 6.00204 7.80574 5.43435C7.80574 5.03576 7.67892 4.71871 7.42527 4.48318C7.17767 4.24765 6.84853 4.12988 6.43786 4.12988C6.0272 4.12988 5.70108 4.24161 5.45951 4.46506C5.21794 4.68851 5.09716 4.99349 5.09716 5.38H4.49021C4.49021 5.01765 4.57174 4.70361 4.7348 4.43788C4.9039 4.16612 5.13339 3.95776 5.42327 3.81282C5.7192 3.66184 6.05739 3.58635 6.43786 3.58635ZM5.86716 10.0453C5.73429 10.0453 5.62257 10 5.53198 9.90941C5.44743 9.81882 5.40516 9.7071 5.40516 9.57424C5.40516 9.44137 5.44743 9.33267 5.53198 9.24812C5.62257 9.15753 5.73429 9.11224 5.86716 9.11224C5.99398 9.11224 6.09967 9.15753 6.18422 9.24812C6.2748 9.33267 6.3201 9.44137 6.3201 9.57424C6.3201 9.7071 6.2748 9.81882 6.18422 9.90941C6.09967 10 5.99398 10.0453 5.86716 10.0453Z" fill="#373737"/>
<circle cx="6.5" cy="6.5" r="6.25" stroke="black" stroke-width="0.5"/>
</svg>
