<svg width="11" height="11" viewBox="0 0 11 11" fill="none" xmlns="http://www.w3.org/2000/svg">
<path d="M5.0614 3.59794C4.13249 3.59794 3.37443 4.37908 3.37443 5.33626C3.37443 6.29344 4.13249 7.07457 5.0614 7.07457C5.99031 7.07457 6.74837 6.29344 6.74837 5.33626C6.74837 4.37908 5.99031 3.59794 5.0614 3.59794ZM10.1211 5.33626C10.1211 4.61642 10.1274 3.90309 10.0881 3.18456C10.0489 2.34996 9.86415 1.60925 9.27187 0.998948C8.67833 0.387343 7.96077 0.198255 7.15082 0.157829C6.45224 0.117403 5.75998 0.123923 5.06267 0.123923C4.36409 0.123923 3.67183 0.117403 2.97452 0.157829C2.16457 0.198255 1.44574 0.388648 0.853464 0.998948C0.259923 1.61055 0.0764187 2.34996 0.0371868 3.18456C-0.00204507 3.9044 0.00428268 4.61772 0.00428268 5.33626C0.00428268 6.0548 -0.00204507 6.76942 0.0371868 7.48796C0.0764187 8.32256 0.261188 9.06327 0.853464 9.67357C1.447 10.2852 2.16457 10.4743 2.97452 10.5147C3.6731 10.5551 4.36535 10.5486 5.06267 10.5486C5.76125 10.5486 6.4535 10.5551 7.15082 10.5147C7.96077 10.4743 8.6796 10.2839 9.27187 9.67357C9.86541 9.06196 10.0489 8.32256 10.0881 7.48796C10.1286 6.76942 10.1211 6.0561 10.1211 5.33626ZM5.0614 8.01089C3.62501 8.01089 2.46577 6.81637 2.46577 5.33626C2.46577 3.85615 3.62501 2.66163 5.0614 2.66163C6.4978 2.66163 7.65703 3.85615 7.65703 5.33626C7.65703 6.81637 6.4978 8.01089 5.0614 8.01089ZM7.76334 3.17673C7.42797 3.17673 7.15714 2.89766 7.15714 2.55209C7.15714 2.20651 7.42797 1.92744 7.76334 1.92744C8.09871 1.92744 8.36954 2.20651 8.36954 2.55209C8.36964 2.63414 8.35403 2.71542 8.3236 2.79125C8.29317 2.86708 8.24852 2.93598 8.19221 2.99401C8.1359 3.05203 8.06903 3.09804 7.99544 3.12939C7.92185 3.16075 7.84298 3.17683 7.76334 3.17673Z" fill="#373737"/>
</svg>
