<svg width="28" height="23" viewBox="0 0 28 23" fill="none" xmlns="http://www.w3.org/2000/svg">
<path d="M5.00348 22.405V20.946C5.00348 20.3865 4.67301 20.0219 4.10656 20.0219C3.82339 20.0219 3.51657 20.1191 3.30414 20.4353C3.13901 20.1677 2.90304 20.0219 2.54902 20.0219C2.31294 20.0219 2.07707 20.0947 1.88818 20.3623V20.0705H1.39258V22.405H1.88818V21.1161C1.88818 20.7028 2.10061 20.5082 2.43108 20.5082C2.76134 20.5082 2.92669 20.7271 2.92669 21.1161V22.405H3.42229V21.1161C3.42229 20.7028 3.65816 20.5082 3.96498 20.5082C4.29545 20.5082 4.46058 20.7271 4.46058 21.1161V22.405H5.00348ZM12.343 20.0705H11.5407V19.3653H11.0451V20.0705H10.5967V20.5324H11.045V21.6025C11.045 22.1376 11.2574 22.4536 11.8239 22.4536C12.0363 22.4536 12.2722 22.3808 12.4375 22.2835L12.2958 21.8457C12.1542 21.943 11.9891 21.9673 11.8711 21.9673C11.6351 21.9673 11.5407 21.8214 11.5407 21.5782V20.5324H12.343V20.0705ZM16.5439 20.0217C16.2607 20.0217 16.072 20.1677 15.9539 20.3623V20.0705H15.4583V22.405H15.9539V21.0919C15.9539 20.7028 16.1191 20.4839 16.4259 20.4839C16.5203 20.4839 16.6383 20.5083 16.7327 20.5325L16.8743 20.0462C16.7799 20.0219 16.6383 20.0217 16.5439 20.0217ZM10.1955 20.2651C9.9594 20.0949 9.62903 20.022 9.27502 20.022C8.70867 20.022 8.33111 20.3138 8.33111 20.7758C8.33111 21.165 8.61428 21.3838 9.10989 21.4568L9.34586 21.4811C9.60549 21.5296 9.74707 21.6026 9.74707 21.7243C9.74707 21.8944 9.55829 22.0161 9.22782 22.0161C8.89746 22.0161 8.63783 21.8944 8.47259 21.7729L8.23662 22.162C8.49624 22.3565 8.85026 22.4538 9.20417 22.4538C9.86501 22.4538 10.2427 22.1377 10.2427 21.6999C10.2427 21.2865 9.93585 21.0676 9.46379 20.9947L9.22782 20.9703C9.01539 20.946 8.85026 20.8974 8.85026 20.7515C8.85026 20.5813 9.01539 20.484 9.27502 20.484C9.55829 20.484 9.84146 20.6055 9.98305 20.6785L10.1955 20.2651ZM23.3644 20.022C23.0811 20.022 22.8924 20.1679 22.7743 20.3624V20.0706H22.2787V22.4051H22.7743V21.092C22.7743 20.7029 22.9395 20.484 23.2463 20.484C23.3408 20.484 23.4588 20.5084 23.5532 20.5326L23.6948 20.0463C23.6004 20.022 23.4588 20.022 23.3644 20.022ZM17.0395 21.2379C17.0395 21.9431 17.5115 22.4538 18.2432 22.4538C18.5735 22.4538 18.8095 22.3809 19.0455 22.1863L18.8095 21.7729C18.6207 21.9188 18.4319 21.9917 18.2195 21.9917C17.8183 21.9917 17.5351 21.6999 17.5351 21.2379C17.5351 20.8002 17.8183 20.5083 18.2195 20.484C18.4319 20.484 18.6207 20.5569 18.8095 20.7029L19.0455 20.2895C18.8095 20.0949 18.5735 20.022 18.2432 20.022C17.5115 20.022 17.0395 20.5326 17.0395 21.2379ZM21.618 21.2379V20.0706H21.1224V20.3624C20.9571 20.1436 20.7212 20.022 20.4143 20.022C19.7772 20.022 19.2816 20.5326 19.2816 21.2379C19.2816 21.9431 19.7772 22.4538 20.4143 22.4538C20.7447 22.4538 20.9808 22.3322 21.1224 22.1133V22.4051H21.618V21.2379ZM19.8007 21.2379C19.8007 20.8244 20.0603 20.484 20.4851 20.484C20.8863 20.484 21.1696 20.8002 21.1696 21.2379C21.1696 21.6513 20.8863 21.9917 20.4851 21.9917C20.0603 21.9673 19.8007 21.6513 19.8007 21.2379ZM13.8771 20.022C13.2163 20.022 12.7442 20.5083 12.7442 21.2379C12.7442 21.9674 13.2162 22.4538 13.9007 22.4538C14.231 22.4538 14.5615 22.3565 14.8211 22.1377L14.5851 21.7729C14.3963 21.9188 14.1603 22.0161 13.9243 22.0161C13.6175 22.0161 13.3107 21.8702 13.2398 21.4566H14.9155V21.2622C14.9392 20.5083 14.5144 20.022 13.8771 20.022ZM13.877 20.4596C14.1837 20.4596 14.3963 20.6543 14.4434 21.0191H13.2634C13.3106 20.7029 13.523 20.4596 13.877 20.4596ZM26.1727 21.2379V19.1465H25.6771V20.3624C25.5118 20.1436 25.2759 20.022 24.969 20.022C24.3319 20.022 23.8363 20.5326 23.8363 21.2379C23.8363 21.9431 24.3319 22.4538 24.969 22.4538C25.2995 22.4538 25.5355 22.3322 25.6771 22.1133V22.4051H26.1727V21.2379ZM24.3555 21.2379C24.3555 20.8244 24.615 20.484 25.0399 20.484C25.4411 20.484 25.7243 20.8002 25.7243 21.2379C25.7243 21.6513 25.4411 21.9917 25.0399 21.9917C24.615 21.9673 24.3555 21.6513 24.3555 21.2379ZM7.7881 21.2379V20.0706H7.2925V20.3624C7.12726 20.1436 6.89129 20.022 6.58447 20.022C5.94728 20.022 5.45168 20.5326 5.45168 21.2379C5.45168 21.9431 5.94728 22.4538 6.58447 22.4538C6.91494 22.4538 7.15091 22.3322 7.2925 22.1133V22.4051H7.7881V21.2379ZM5.94728 21.2379C5.94728 20.8244 6.20691 20.484 6.63166 20.484C7.03287 20.484 7.31615 20.8002 7.31615 21.2379C7.31615 21.6513 7.03287 21.9917 6.63166 21.9917C6.20691 21.9673 5.94728 21.6513 5.94728 21.2379Z" fill="black"/>
<path d="M10.03 2.34229H17.4641V16.1065H10.03V2.34229Z" fill="#FF5F00"/>
<path d="M10.5021 9.22438C10.5021 6.4278 11.7765 3.94726 13.7353 2.3422C12.2958 1.17494 10.4786 0.469727 8.49619 0.469727C3.79958 0.469727 0 4.38495 0 9.22438C0 14.0637 3.79958 17.979 8.49608 17.979C10.4785 17.979 12.2957 17.2738 13.7353 16.1065C11.7765 14.5258 10.5021 12.021 10.5021 9.22438Z" fill="#EB001B"/>
<path d="M27.4941 9.22438C27.4941 14.0637 23.6945 17.979 18.998 17.979C17.0156 17.979 15.1984 17.2738 13.7588 16.1065C15.7412 14.5015 16.992 12.021 16.992 9.22438C16.992 6.4278 15.7175 3.94726 13.7588 2.3422C15.1983 1.17494 17.0156 0.469727 18.998 0.469727C23.6945 0.469727 27.4941 4.40932 27.4941 9.22438Z" fill="#F79E1B"/>
</svg>
