<svg width="19" height="20" viewBox="0 0 19 20" fill="none" xmlns="http://www.w3.org/2000/svg">
<path d="M1 18.4602L4.59 14.7609H16C16.5304 14.7609 17.0391 14.5438 17.4142 14.1573C17.7893 13.7708 18 13.2466 18 12.7001V3.42614C18 2.87957 17.7893 2.35538 17.4142 1.96889C17.0391 1.5824 16.5304 1.36527 16 1.36527H3C2.46957 1.36527 1.96086 1.5824 1.58579 1.96889C1.21071 2.35538 1 2.87957 1 3.42614V18.4602ZM1 19.9131H0V3.42614C0 2.60628 0.316071 1.81999 0.87868 1.24026C1.44129 0.660529 2.20435 0.334839 3 0.334839H16C16.7956 0.334839 17.5587 0.660529 18.1213 1.24026C18.6839 1.81999 19 2.60628 19 3.42614V12.7001C19 13.5199 18.6839 14.3062 18.1213 14.8859C17.5587 15.4657 16.7956 15.7914 16 15.7914H5L1 19.9131Z" fill="#373737"/>
</svg>
