<svg width="15" height="18" viewBox="0 0 15 18" fill="none" xmlns="http://www.w3.org/2000/svg">
<g clip-path="url(#clip0_1093_6318)">
<path d="M12.0556 1.90564C11.2821 0.997155 9.88382 0.607666 8.09503 0.607666H2.90349C2.72651 0.607673 2.55533 0.672736 2.42074 0.791157C2.28614 0.909579 2.19696 1.07359 2.16922 1.25371L0.00756267 15.3808C-0.0354041 15.6593 0.173934 15.9116 0.447944 15.9116H3.65302L4.45796 10.6506L4.43298 10.8154C4.49032 10.4435 4.79897 10.1692 5.16446 10.1692H6.68751C9.67953 10.1692 12.0223 8.91697 12.7067 5.29441C12.727 5.18727 12.7446 5.08299 12.7598 4.98111C12.6734 4.93398 12.6734 4.93398 12.7598 4.98111C12.9636 3.64218 12.7584 2.73078 12.0556 1.90564Z" fill="#27346A"/>
<path d="M5.68434 4.49879C5.77196 4.45579 5.8678 4.43351 5.96485 4.43357H10.0349C10.5169 4.43357 10.9664 4.46589 11.3772 4.53402C11.4922 4.55291 11.6065 4.57546 11.7201 4.60164C11.8811 4.63824 12.0403 4.68305 12.197 4.73589C12.3989 4.80539 12.587 4.88633 12.7599 4.98111C12.9636 3.64167 12.7584 2.73078 12.0556 1.90564C11.2816 0.997156 9.88382 0.607666 8.09503 0.607666H2.90305C2.5375 0.607666 2.22651 0.881893 2.16923 1.25371L0.00756298 15.3802C-0.0354038 15.6593 0.173934 15.9112 0.447501 15.9112H3.65302L5.32301 4.99873C5.33943 4.89147 5.3809 4.78993 5.44384 4.70284C5.50678 4.61575 5.58932 4.54572 5.68434 4.49879Z" fill="#27346A"/>
<path d="M12.7067 5.2945C12.0223 8.91654 9.67958 10.1693 6.6875 10.1693H5.16401C4.79852 10.1693 4.48981 10.4436 4.43302 10.8155L3.43163 17.3568C3.39421 17.6006 3.57718 17.8215 3.81655 17.8215H6.51835C6.67312 17.8215 6.8228 17.7646 6.94046 17.661C7.05813 17.5574 7.13606 17.4139 7.16024 17.2564L7.18656 17.1145L7.69578 13.789L7.72858 13.6052C7.75277 13.4477 7.83069 13.3043 7.94835 13.2007C8.066 13.0971 8.21566 13.0401 8.37042 13.0401H8.77477C11.392 13.0401 13.4414 11.9444 14.0403 8.77565C14.2902 7.45142 14.1609 6.34582 13.4996 5.56924C13.2991 5.33402 13.05 5.13977 12.7598 4.9812C12.7441 5.08359 12.7271 5.18736 12.7067 5.2945Z" fill="#2790C3"/>
<path d="M12.0435 4.68694C11.9368 4.65484 11.8291 4.62641 11.7205 4.60171C11.6069 4.57596 11.4925 4.55357 11.3776 4.53456C10.9664 4.46597 10.5172 4.4336 10.0348 4.4336H5.96522C5.8681 4.43337 5.77219 4.45584 5.68472 4.49932C5.58958 4.54612 5.50695 4.6161 5.44398 4.70321C5.38101 4.79033 5.3396 4.89195 5.32333 4.99927L4.45833 10.6507L4.43335 10.8155C4.49025 10.4436 4.7989 10.1693 5.16445 10.1693H6.68794C9.67996 10.1693 12.0227 8.91704 12.7071 5.29449C12.7274 5.18735 12.7445 5.08353 12.7602 4.98119C12.5869 4.88692 12.3994 4.80547 12.1973 4.73642C12.1464 4.71901 12.0951 4.70252 12.0436 4.68694" fill="#1F264F"/>
</g>
<defs>
<clipPath id="clip0_1093_6318">
<rect width="14.2112" height="17.2751" fill="white" transform="translate(0 0.561035)"/>
</clipPath>
</defs>
</svg>
