<svg width="19" height="19" viewBox="0 0 19 19" fill="none" xmlns="http://www.w3.org/2000/svg">
<path d="M1.16663 15.75C1.16663 14.6449 1.60561 13.5851 2.38701 12.8037C3.16842 12.0223 4.22822 11.5833 5.33329 11.5833H13.6666C14.7717 11.5833 15.8315 12.0223 16.6129 12.8037C17.3943 13.5851 17.8333 14.6449 17.8333 15.75C17.8333 16.3025 17.6138 16.8324 17.2231 17.2231C16.8324 17.6138 16.3025 17.8333 15.75 17.8333H3.24996C2.69742 17.8333 2.16752 17.6138 1.77682 17.2231C1.38612 16.8324 1.16663 16.3025 1.16663 15.75Z" stroke="#303030" stroke-width="1.04167" stroke-linejoin="round"/>
<path d="M9.5 7.41666C11.2259 7.41666 12.625 6.01755 12.625 4.29166C12.625 2.56577 11.2259 1.16666 9.5 1.16666C7.77411 1.16666 6.375 2.56577 6.375 4.29166C6.375 6.01755 7.77411 7.41666 9.5 7.41666Z" stroke="#303030" stroke-width="1.04167"/>
</svg>
