<svg width="25" height="20" viewBox="0 0 25 20" fill="none" xmlns="http://www.w3.org/2000/svg">
<path d="M10 4.94136V3.91093C10 3.22771 10.2634 2.57247 10.7322 2.08936C11.2011 1.60625 11.837 1.33484 12.5 1.33484C13.163 1.33484 13.7989 1.60625 14.2678 2.08936C14.7366 2.57247 15 3.22771 15 3.91093V4.1335C15 4.98069 14.6734 5.79317 14.092 6.39221C10.7598 9.82581 6.58471 12.2617 2.013 13.4394L1 13.7001V16.7914L1.782 17.0593C8.73915 19.449 16.2608 19.449 23.218 17.0593L24 16.7914V13.7001L22.987 13.4394C19.9498 12.657 17.0746 11.3158 14.5 9.48043" stroke="black"/>
</svg>
