<svg width="18" height="18" viewBox="0 0 18 18" fill="none" xmlns="http://www.w3.org/2000/svg">
<path d="M16.3631 17.1L9.82705 10.5647C9.30516 11.0093 8.705 11.3534 8.02655 11.5969C7.34811 11.8404 6.66618 11.9622 5.98077 11.9622C4.30936 11.9622 2.89471 11.3837 1.73683 10.2266C0.578942 9.06886 0 7.65474 0 5.98422C0 4.3137 0.578246 2.89888 1.73474 1.73974C2.89192 0.579915 4.30588 0 5.9766 0C7.64802 0 9.06336 0.578871 10.2226 1.73661C11.3819 2.89436 11.9615 4.30918 11.9615 5.98109C11.9615 6.70607 11.8332 7.40774 11.5764 8.08611C11.3189 8.76447 10.9815 9.34473 10.5639 9.82689L17.1 16.3611L16.3631 17.1ZM5.98077 10.9175C7.3655 10.9175 8.53487 10.4409 9.48887 9.48771C10.4422 8.53452 10.9188 7.3653 10.9188 5.98004C10.9188 4.59548 10.4422 3.42661 9.48887 2.47342C8.53556 1.52023 7.36655 1.04364 5.98182 1.04364C4.59709 1.04364 3.42772 1.52023 2.47372 2.47342C1.52042 3.42661 1.04377 4.59548 1.04377 5.98004C1.04377 7.3646 1.52042 8.53348 2.47372 9.48667C3.42703 10.4399 4.59605 10.9175 5.98077 10.9175Z" fill="#303030"/>
</svg>
