<svg width="15" height="17" viewBox="0 0 15 17" fill="none" xmlns="http://www.w3.org/2000/svg">
<path d="M12.7409 16.4022C12.153 16.4022 11.6525 16.1958 11.2394 15.7832C10.8262 15.3718 10.6196 14.8715 10.6196 14.2826C10.6196 14.1695 10.6295 14.0528 10.6493 13.9324C10.6685 13.8115 10.6976 13.6979 10.7366 13.5916L4.17272 9.72383C3.96529 9.95783 3.72394 10.1401 3.44868 10.2707C3.17398 10.4018 2.8795 10.4674 2.56524 10.4674C1.97629 10.4674 1.47607 10.2616 1.06459 9.85015C0.651983 9.43811 0.445679 8.93789 0.445679 8.3495C0.445679 7.76167 0.651983 7.26117 1.06459 6.848C1.4755 6.43483 1.97572 6.22824 2.56524 6.22824C2.8795 6.22824 3.17398 6.29381 3.44868 6.42494C3.72394 6.5555 3.96529 6.73778 4.17272 6.97178L10.7366 3.104C10.6976 2.99774 10.6685 2.88413 10.6493 2.76317C10.6295 2.64278 10.6196 2.52607 10.6196 2.41302C10.6196 1.82407 10.8256 1.32385 11.2377 0.91237C11.6491 0.499761 12.1491 0.293457 12.7375 0.293457C13.3253 0.293457 13.8258 0.499479 14.239 0.911522C14.6521 1.323 14.8587 1.82294 14.8587 2.41133C14.8587 2.99915 14.6524 3.49965 14.2398 3.91283C13.8283 4.326 13.3281 4.53259 12.7392 4.53259C12.4249 4.53259 12.1304 4.46702 11.8557 4.33589C11.5805 4.20533 11.3391 4.02304 11.1317 3.78904L4.56781 7.65683C4.60681 7.76309 4.63592 7.87613 4.65514 7.99596C4.67492 8.11635 4.68481 8.2325 4.68481 8.34441C4.68481 8.45633 4.67492 8.57361 4.65514 8.69626C4.63592 8.81835 4.60681 8.93252 4.56781 9.03878L11.1317 12.9066C11.3391 12.6726 11.5805 12.4903 11.8557 12.3597C12.1304 12.2286 12.4249 12.163 12.7392 12.163C13.3281 12.163 13.8283 12.369 14.2398 12.7811C14.6524 13.1926 14.8587 13.6925 14.8587 14.2809C14.8587 14.8687 14.653 15.3692 14.2415 15.7824C13.8295 16.1956 13.3292 16.4022 12.7409 16.4022ZM12.7392 3.68476C13.0879 3.68476 13.3872 3.56013 13.637 3.31087C13.8863 3.06104 14.0109 2.76176 14.0109 2.41302C14.0109 2.06428 13.8863 1.765 13.637 1.51517C13.3872 1.26591 13.0879 1.14128 12.7392 1.14128C12.3904 1.14128 12.0911 1.26591 11.8413 1.51517C11.592 1.765 11.4674 2.06428 11.4674 2.41302C11.4674 2.76176 11.592 3.06104 11.8413 3.31087C12.0911 3.56013 12.3904 3.68476 12.7392 3.68476ZM2.56524 9.61954C2.91398 9.61954 3.21327 9.49491 3.46309 9.24565C3.71235 8.99583 3.83698 8.69654 3.83698 8.34781C3.83698 7.99907 3.71235 7.69978 3.46309 7.44996C3.21327 7.2007 2.91398 7.07607 2.56524 7.07607C2.2165 7.07607 1.91722 7.2007 1.6674 7.44996C1.41814 7.69978 1.2935 7.99907 1.2935 8.34781C1.2935 8.69654 1.41814 8.99583 1.6674 9.24565C1.91722 9.49491 2.2165 9.61954 2.56524 9.61954ZM12.7392 15.5543C13.0879 15.5543 13.3872 15.4297 13.637 15.1804C13.8863 14.9306 14.0109 14.6313 14.0109 14.2826C14.0109 13.9338 13.8863 13.6346 13.637 13.3847C13.3872 13.1355 13.0879 13.0108 12.7392 13.0108C12.3904 13.0108 12.0911 13.1355 11.8413 13.3847C11.592 13.6346 11.4674 13.9338 11.4674 14.2826C11.4674 14.6313 11.592 14.9306 11.8413 15.1804C12.0911 15.4297 12.3904 15.5543 12.7392 15.5543Z" fill="#5C5C5C"/>
</svg>
