<svg width="11" height="11" viewBox="0 0 11 11" fill="none" xmlns="http://www.w3.org/2000/svg">
<path d="M7.14355 6.46143C7.63053 6.62972 8.06917 6.86426 8.45947 7.16504C8.84977 7.46582 9.18278 7.81673 9.4585 8.21777C9.73421 8.61882 9.94548 9.05387 10.0923 9.52295C10.2391 9.99202 10.3125 10.4844 10.3125 11H9.625C9.625 10.4128 9.52116 9.86849 9.31348 9.36719C9.10579 8.86589 8.81575 8.42904 8.44336 8.05664C8.07096 7.68424 7.6359 7.396 7.13818 7.19189C6.64046 6.98779 6.0944 6.88216 5.5 6.875C5.11686 6.875 4.74805 6.92334 4.39355 7.02002C4.03906 7.1167 3.70964 7.25277 3.40527 7.42822C3.10091 7.60368 2.82341 7.81673 2.57275 8.06738C2.3221 8.31803 2.10905 8.59554 1.93359 8.8999C1.75814 9.20426 1.62028 9.53548 1.52002 9.89355C1.41976 10.2516 1.37142 10.6204 1.375 11H0.6875C0.6875 10.4844 0.762695 9.99202 0.913086 9.52295C1.06348 9.05387 1.27653 8.62061 1.55225 8.22314C1.82796 7.82568 2.16097 7.47835 2.55127 7.18115C2.94157 6.88395 3.38021 6.64583 3.86719 6.4668C3.58789 6.31641 3.33724 6.13379 3.11523 5.91895C2.89323 5.7041 2.70524 5.46598 2.55127 5.20459C2.3973 4.9432 2.27734 4.66211 2.19141 4.36133C2.10547 4.06055 2.0625 3.7526 2.0625 3.4375C2.0625 2.96126 2.15202 2.51546 2.33105 2.1001C2.51009 1.68473 2.75537 1.3195 3.06689 1.00439C3.37842 0.68929 3.74186 0.44401 4.15723 0.268555C4.57259 0.093099 5.02018 0.00358073 5.5 0C5.97624 0 6.42204 0.0895182 6.8374 0.268555C7.25277 0.447591 7.618 0.692871 7.93311 1.00439C8.24821 1.31592 8.49349 1.67936 8.66895 2.09473C8.8444 2.51009 8.93392 2.95768 8.9375 3.4375C8.9375 3.7526 8.89632 4.05876 8.81396 4.35596C8.73161 4.65316 8.61165 4.93245 8.4541 5.19385C8.29655 5.45524 8.10856 5.69336 7.89014 5.9082C7.67171 6.12305 7.42285 6.30745 7.14355 6.46143ZM2.75 3.4375C2.75 3.81706 2.82161 4.17334 2.96484 4.50635C3.10807 4.83936 3.30501 5.12939 3.55566 5.37646C3.80632 5.62354 4.09814 5.82048 4.43115 5.96729C4.76416 6.1141 5.12044 6.1875 5.5 6.1875C5.87956 6.1875 6.23584 6.11589 6.56885 5.97266C6.90186 5.82943 7.19189 5.63249 7.43896 5.38184C7.68604 5.13119 7.88298 4.83936 8.02979 4.50635C8.1766 4.17334 8.25 3.81706 8.25 3.4375C8.25 3.05794 8.17839 2.70166 8.03516 2.36865C7.89193 2.03564 7.69499 1.74561 7.44434 1.49854C7.19369 1.25146 6.90186 1.05452 6.56885 0.907715C6.23584 0.760905 5.87956 0.6875 5.5 0.6875C5.12044 0.6875 4.76416 0.759115 4.43115 0.902344C4.09814 1.04557 3.80811 1.24251 3.56104 1.49316C3.31396 1.74382 3.11702 2.03564 2.97021 2.36865C2.82341 2.70166 2.75 3.05794 2.75 3.4375Z" fill="black"/>
</svg>
