<svg width="13" height="12" viewBox="0 0 13 12" fill="none" xmlns="http://www.w3.org/2000/svg">
<path d="M12.9592 1.93752C12.4822 2.16093 11.968 2.30775 11.4353 2.37796C11.9804 2.03965 12.4017 1.50347 12.5999 0.858767C12.0857 1.17793 11.5158 1.40134 10.915 1.529C10.4256 0.980047 9.73797 0.660889 8.95745 0.660889C7.50171 0.660889 6.31234 1.88646 6.31234 3.39927C6.31234 3.6163 6.33712 3.82694 6.38048 4.02482C4.17519 3.90992 2.21149 2.8184 0.904417 1.16516C0.675216 1.5673 0.545128 2.03965 0.545128 2.53754C0.545128 3.48863 1.00973 4.33121 1.7283 4.80995C1.28848 4.80995 0.879639 4.68229 0.52035 4.49079V4.50994C0.52035 5.83764 1.43716 6.94831 2.65131 7.19726C2.26149 7.30718 1.85226 7.32247 1.45574 7.24194C1.62399 7.78609 1.9535 8.26223 2.39795 8.60342C2.84241 8.94462 3.37945 9.13371 3.9336 9.14412C2.99426 9.91038 1.82989 10.3246 0.631853 10.3186C0.421235 10.3186 0.210618 10.3059 0 10.2803C1.17698 11.0591 2.57697 11.5123 4.07607 11.5123C8.95745 11.5123 11.6397 7.33769 11.6397 3.71843C11.6397 3.59715 11.6397 3.48225 11.6335 3.36097C12.1539 2.97798 12.5999 2.49286 12.9592 1.93752Z" fill="#373737"/>
</svg>
