<svg width="37" height="18" viewBox="0 0 37 18" fill="none" xmlns="http://www.w3.org/2000/svg">
<path d="M13.7031 0.803407L8.97775 12.4192H5.89503L3.56967 3.1487C3.42869 2.57908 3.30618 2.36945 2.87717 2.12859C2.17592 1.73606 1.01789 1.36896 0 1.14059L0.0686584 0.803407H5.0318C5.6634 0.803407 6.23212 1.23676 6.37677 1.98709L7.60543 8.70931L10.6388 0.803407H13.7031ZM17.8705 0.803407L15.4593 12.4192H12.5426L14.9541 0.803407H17.8705ZM25.7819 8.62665C25.794 5.56154 21.6688 5.39142 21.6958 4.02193C21.7056 3.60558 22.0905 3.16235 22.933 3.04904C23.3503 2.9934 24.5033 2.94909 25.8092 3.56912L26.3201 1.10441C25.6185 0.842922 24.7155 0.591309 23.5923 0.591309C20.7092 0.591309 18.6811 2.16926 18.6649 4.43059C18.646 6.10326 20.1135 7.03548 21.2171 7.5926C22.3539 8.16149 22.7351 8.52714 22.7299 9.0356C22.7217 9.81499 21.8219 10.16 20.9855 10.1728C19.5187 10.1968 18.6685 9.76429 17.9902 9.43873L17.4608 11.9851C18.1432 12.3073 19.4007 12.5872 20.7033 12.6015C23.7682 12.6015 25.7728 11.0415 25.7819 8.62665ZM33.3949 12.4193H36.0915L33.7357 0.803407H31.2477C30.6866 0.803407 30.215 1.13899 30.0058 1.65485L25.6297 12.4192H28.6923L29.2998 10.684H33.0415L33.3949 12.4193ZM30.1396 8.30386L31.6752 3.94174L32.5573 8.30386H30.1396ZM21.6031 15.6166H20.418V16.7531H21.7436V17.0948H20.0188V13.9419H21.6756V14.2836H20.418V15.2797H21.603L21.6031 15.6166ZM22.3558 13.7737H22.7551V17.0946H22.3558V13.7737ZM23.7626 16.0375C23.7716 16.5943 24.1122 16.8234 24.516 16.8234C24.8022 16.8234 24.9791 16.772 25.1246 16.7066L25.1971 17.0014C25.0564 17.0667 24.8113 17.1462 24.4616 17.1462C23.7854 17.1462 23.3815 16.6832 23.3815 16.0001C23.3815 15.3173 23.7716 14.7839 24.4118 14.7839C25.1336 14.7839 25.3197 15.4296 25.3197 15.8459C25.3197 15.93 25.3151 15.9907 25.3059 16.0376L23.7626 16.0375ZM24.9337 15.7429C24.9384 15.4857 24.8294 15.0787 24.3799 15.0787C23.9714 15.0787 23.7988 15.4575 23.7669 15.7429H24.9337ZM27.4931 17.0152C27.3888 17.0667 27.1571 17.1463 26.8622 17.1463C26.1994 17.1463 25.7682 16.6832 25.7682 15.9908C25.7682 15.2938 26.231 14.7841 26.9483 14.7841C27.1844 14.7841 27.3931 14.8446 27.5021 14.9056L27.4116 15.219C27.3159 15.1676 27.1662 15.1112 26.9483 15.1112C26.4443 15.1112 26.1722 15.4995 26.1722 15.9676C26.1722 16.4913 26.499 16.8141 26.9348 16.8141C27.1618 16.8141 27.3115 16.758 27.425 16.7066L27.4931 17.0152ZM28.6136 14.2881V14.8307H29.1855V15.1439H28.6136V16.3649C28.6136 16.6459 28.6909 16.8047 28.9132 16.8047C29.0221 16.8047 29.0858 16.7955 29.1449 16.7765L29.163 17.0903C29.0858 17.1182 28.9633 17.1462 28.8089 17.1462C28.6227 17.1462 28.4728 17.0807 28.3776 16.9733C28.2686 16.8468 28.2232 16.6459 28.2232 16.3792V15.1439H27.8826V14.8307H28.2232V14.4097L28.6136 14.2881ZM29.7433 15.5371C29.7433 15.2704 29.7385 15.0413 29.7251 14.8307H30.0748L30.0931 15.2796H30.1063C30.2064 14.9758 30.4513 14.7839 30.7191 14.7839C30.7601 14.7839 30.7919 14.7887 30.8283 14.7932V15.1817C30.7874 15.1721 30.7467 15.1721 30.6918 15.1721C30.4107 15.1721 30.2107 15.3872 30.1564 15.6962C30.147 15.7597 30.1425 15.8238 30.1427 15.888V17.0949H29.7433V15.5371ZM33.2835 15.9439C33.2835 16.7813 32.7159 17.1462 32.1895 17.1462C31.5992 17.1462 31.1364 16.697 31.1364 15.9815C31.1364 15.2283 31.6221 14.7841 32.2259 14.7841C32.8568 14.7841 33.2835 15.256 33.2835 15.9439ZM31.5448 15.9676C31.5448 16.4634 31.8172 16.8378 32.2076 16.8378C32.5891 16.8378 32.8748 16.4679 32.8748 15.9581C32.8748 15.5746 32.6887 15.0926 32.2166 15.0926C31.7492 15.0926 31.5448 15.5419 31.5448 15.9676ZM33.8957 15.4436C33.8957 15.2052 33.8909 15.0179 33.8773 14.831H34.2315L34.2542 15.2052H34.2632C34.3722 14.9946 34.6264 14.7842 34.9896 14.7842C35.2935 14.7842 35.7658 14.9713 35.7658 15.7475V17.0949H35.3664V15.7898C35.3664 15.4251 35.2347 15.1208 34.858 15.1208C34.5992 15.1208 34.3947 15.3127 34.3224 15.5418C34.3041 15.5934 34.2951 15.6634 34.2951 15.7337V17.0949H33.8957V15.4436Z" fill="#1A1F71"/>
</svg>
